<?xml version='1.0' encoding='utf-8'?>
<svg xmlns="http://www.w3.org/2000/svg" viewBox="0 0 500 500"><defs><style>.a{isolation:isolate;}.b{fill:#431772;}.c{fill:#ffd55c;}.d,.t{fill:#ffc640;}.e,.f{fill:#2a445e;}.f,.j,.p,.r,.t{mix-blend-mode:screen;}.g{fill:#e1effa;}.h{fill:#f2f9ff;}.i{fill:#cee2f2;}.k{fill:#baaea0;}.l,.p{fill:#50667e;}.m{fill:#b8d1e6;}.n,.r{fill:#ff6d3b;}.o{fill:#21d8de;}.q{fill:#fff;}.s{fill:#20364d;}</style></defs><title>116</title><g class="a"><rect class="b" width="500" height="500"/><path class="c" d="M259.44167,142.68278a34.08485,34.08485,0,1,1-34.08656-34.08484A34.08424,34.08424,0,0,1,259.44167,142.68278Z"/><rect class="d" x="210.02191" y="173.02265" width="30.66641" height="8.52498"/><path class="e" d="M214.57072,202.8149V212.509a2.55251,2.55251,0,0,0,5.105,0V202.8149Z"/><path class="f" d="M217.12494,213.53223a1.01547,1.01547,0,0,1-.72357-.29636,1.005,1.005,0,0,1-.2998-.72684V202.8149h-1.01993V212.509a2.0386,2.0386,0,0,0,2.0433,2.04828.51261.51261,0,0,0,0-1.02508Z"/><path class="e" d="M231.03449,202.8149V212.509a2.56476,2.56476,0,0,0,2.55748,2.55748,2.56484,2.56484,0,0,0,2.54925-2.55748V202.8149Z"/><path class="f" d="M233.592,213.53223a1.03809,1.03809,0,0,1-.72684-.29636,1.05263,1.05263,0,0,1-.29807-.72684V202.8149h-1.01994V212.509a2.05565,2.05565,0,0,0,2.04485,2.04828.51264.51264,0,0,0,0-1.02508Z"/><rect class="g" x="208.32024" y="181.54763" width="34.07318" height="21.26727"/><polygon class="h" points="242.393 181.548 208.32 181.548 208.32 181.548 208.32 181.548 207.144 182.718 243.566 182.718 242.393 181.548"/><polygon class="i" points="242.393 183.889 208.32 183.889 208.32 183.889 208.32 183.889 207.144 182.718 243.566 182.718 242.393 183.889"/><polygon class="h" points="242.393 185.334 208.32 185.334 208.32 185.334 208.32 185.334 207.144 186.504 243.566 186.504 242.393 185.334"/><polygon class="i" points="242.393 187.674 208.32 187.674 208.32 187.674 208.32 187.674 207.144 186.504 243.566 186.504 242.393 187.674"/><polygon class="h" points="242.393 189.121 208.32 189.121 208.32 189.121 208.32 189.121 207.144 190.285 243.566 190.285 242.393 189.121"/><polygon class="i" points="242.393 191.456 208.32 191.456 208.32 191.456 208.32 191.456 207.144 190.285 243.566 190.285 242.393 191.456"/><polygon class="h" points="242.393 192.896 208.32 192.896 208.32 192.896 208.32 192.896 207.144 194.065 243.566 194.065 242.393 192.896"/><polygon class="i" points="242.393 195.241 208.32 195.241 208.32 195.241 208.32 195.241 207.144 194.065 243.566 194.065 242.393 195.241"/><polygon class="h" points="242.393 196.683 208.32 196.683 208.32 196.683 208.32 196.683 207.144 197.856 243.566 197.856 242.393 196.683"/><polygon class="i" points="242.393 199.028 208.32 199.028 208.32 199.028 208.32 199.028 207.144 197.856 243.566 197.856 242.393 199.028"/><polygon class="h" points="242.393 200.47 208.32 200.47 208.32 200.47 208.32 200.47 207.144 201.642 243.566 201.642 242.393 200.47"/><polygon class="i" points="242.393 202.815 208.32 202.815 208.32 202.815 208.32 202.815 207.144 201.642 243.566 201.642 242.393 202.815"/><g class="j"><path class="k" d="M217.09647,119.96681c2.80531,2.80205,1.82721,8.29723-2.16233,12.29329-4.0012,3.993-9.49467,4.95923-12.3,2.164-2.7921-2.79209-1.81555-8.29568,2.17554-12.285C208.79925,118.13943,214.30438,117.17472,217.09647,119.96681Z"/><path class="k" d="M246.62907,155.51373c1.6262,1.63633,1.06178,4.84209-1.26947,7.17507-2.32819,2.32972-5.53876,2.89414-7.16668,1.25953-1.63478-1.62964-1.0719-4.83369,1.26108-7.165C241.78715,154.45023,244.99274,153.88581,246.62907,155.51373Z"/></g><path class="l" d="M229.99278,181.54763h-.74023V166.5895a32.5244,32.5244,0,0,1,1.98963-11.22806L235.06931,144.86H228.1906a.37432.37432,0,0,1-.33324-.20769l-1.643-3.32616-1.15233,7.84668a.37014.37014,0,0,1-.70009.10719l-2.07178-4.42H215.6476l3.82713,10.50141a32.67921,32.67921,0,0,1,1.98808,11.22806v14.95813h-.74193V166.5895a31.99733,31.99733,0,0,0-1.94451-10.97355l-4.00962-11.002a.37991.37991,0,0,1,.04511-.33838.37451.37451,0,0,1,.30494-.15915h7.40951a.37045.37045,0,0,1,.33495.21438l1.64645,3.51379,1.14548-7.80467a.36937.36937,0,0,1,.69854-.10719l2.06835,4.18369h7.17678a.374.374,0,0,1,.30476.15915.37008.37008,0,0,1,.04528.33838l-4.01133,11.002a32.03883,32.03883,0,0,0-1.94279,10.97355Z"/><path class="l" d="M216.35454,144.48821a1.23775,1.23775,0,1,1-1.23774-1.23775A1.23621,1.23621,0,0,1,216.35454,144.48821Z"/><path class="l" d="M236.83461,144.48821a1.2369,1.2369,0,1,1-1.23775-1.23775A1.23511,1.23511,0,0,1,236.83461,144.48821Z"/><path class="h" d="M290.77643,241.51733v169.7562a15.52168,15.52168,0,0,1-15.51414,15.51586H159.93705V241.51733a15.52344,15.52344,0,0,1,15.51088-15.51243H306.28731A15.51915,15.51915,0,0,0,290.77643,241.51733Z"/><rect class="m" x="203.15657" y="314.17735" width="76.04329" height="3.09017"/><rect class="m" x="171.51036" y="314.17735" width="25.71061" height="3.09017"/><rect class="m" x="171.51036" y="321.90021" width="107.68951" height="3.09"/><rect class="m" x="171.51036" y="329.62461" width="53.84475" height="3.09"/><rect class="n" x="173.67097" y="260.3494" width="15.74516" height="48.56721"/><rect class="m" x="195.04526" y="286.34145" width="15.74361" height="22.57516"/><rect class="e" x="216.42315" y="268.18768" width="15.74362" height="40.72893"/><rect class="o" x="237.79589" y="299.95961" width="15.74362" height="8.957"/><rect class="m" x="264.67891" y="261.61391" width="7.8316" height="1.66651"/><rect class="m" x="273.75322" y="261.61391" width="3.28603" height="1.66651"/><rect class="m" x="264.67891" y="274.97584" width="12.36034" height="1.66651"/><rect class="m" x="275.08804" y="281.65852" width="1.95121" height="1.66651"/><rect class="m" x="264.67891" y="281.65852" width="9.3657" height="1.66651"/><rect class="m" x="264.67891" y="268.29487" width="2.29113" height="1.6648"/><rect class="m" x="268.56126" y="268.29487" width="3.48034" height="1.6648"/><rect class="m" x="273.5589" y="268.29487" width="3.48034" height="1.6648"/><path class="e" d="M262.37594,262.44794a2.0969,2.0969,0,1,1-2.09853-2.09854A2.09508,2.09508,0,0,1,262.37594,262.44794Z"/><path class="m" d="M262.37594,269.1289a2.0969,2.0969,0,1,1-2.09853-2.09853A2.09362,2.09362,0,0,1,262.37594,269.1289Z"/><path class="n" d="M262.37594,275.80987a2.0969,2.0969,0,1,1-2.09853-2.10025A2.09362,2.09362,0,0,1,262.37594,275.80987Z"/><path class="o" d="M262.37594,282.48929a2.0969,2.0969,0,1,1-2.09853-2.097A2.09394,2.09394,0,0,1,262.37594,282.48929Z"/><rect class="m" x="171.51036" y="341.89114" width="51.04941" height="21.89034"/><rect class="m" x="228.15047" y="341.89114" width="51.0494" height="21.89034"/><rect class="l" x="171.51036" y="373.46704" width="107.68951" height="3.09189"/><rect class="m" x="171.51036" y="381.19315" width="107.68951" height="3.09017"/><rect class="m" x="171.51036" y="388.91584" width="53.84818" height="3.09189"/><path class="m" d="M306.28731,226.0049a15.52483,15.52483,0,0,1,15.51741,15.51243H290.77643A15.51915,15.51915,0,0,1,306.28731,226.0049Z"/><path class="i" d="M159.93705,426.78939V411.27353a15.51872,15.51872,0,0,1-15.51569,15.51586Z"/><path class="m" d="M144.42136,426.78939a15.52036,15.52036,0,0,1-15.51259-15.51586H259.74643a15.52,15.52,0,0,0,15.51586,15.51586Z"/><polygon class="l" points="103.007 259.321 99.279 259.326 94.936 259.316 93.255 259.318 93.26 250.619 103.007 250.617 103.007 259.321"/><path class="l" d="M88.848,246.16168H58.85322a8.80891,8.80891,0,1,0,0,17.61782l29.9948.00326Z"/><path class="p" d="M88.848,250.30369h0v-2.43863H58.84979a7.11947,7.11947,0,0,0-7.10973,7.108,1.23855,1.23855,0,0,0,.36016.861,1.21988,1.21988,0,0,0,2.08018-.861,4.67447,4.67447,0,0,1,4.66613-4.66939Z"/><path class="e" d="M88.848,263.78276V246.16168h1.32315A3.08528,3.08528,0,0,1,93.25963,249.24l-.005,11.46114a3.07358,3.07358,0,0,1-3.08006,3.08Z"/><path class="e" d="M169.88741,283.13243a39.8291,39.8291,0,1,0-56.33363.00823A39.83142,39.83142,0,0,0,169.88741,283.13243Z"/><path class="l" d="M116.60211,280.08754a35.52006,35.52006,0,1,1,50.23371,0A35.52177,35.52177,0,0,1,116.60211,280.08754Z"/><path class="h" d="M175.04593,254.96982a33.32868,33.32868,0,1,0-33.32439,33.32782A33.327,33.327,0,0,0,175.04593,254.96982Z"/><path class="o" d="M165.60477,254.97136a23.88332,23.88332,0,1,0-23.88323,23.88683A23.89213,23.89213,0,0,0,165.60477,254.97136Z"/><path class="e" d="M141.72154,267.21628a12.24569,12.24569,0,1,1,12.24131-12.24492A12.239,12.239,0,0,1,141.72154,267.21628Z"/><g class="j"><path class="i" d="M131.4647,234.21329c2.28444,2.2829,1.78194,6.48837-1.11718,9.3892-2.90254,2.90083-7.1063,3.40162-9.38748,1.1122-2.28616-2.27947-1.78708-6.4851,1.11375-9.38593C124.97634,232.42793,129.18352,231.92542,131.4647,234.21329Z"/><path class="i" d="M139.54583,247.86163c1.07516,1.07191.83917,3.04833-.52429,4.41162-1.36329,1.36672-3.33954,1.60288-4.41659.52429-1.07344-1.07362-.839-3.04833.526-4.41333C136.49922,247.0192,138.47564,246.78476,139.54583,247.86163Z"/></g><path class="g" d="M94.10378,359.19065H76.66364a35.34763,35.34763,0,0,0-3.01145,67.59874H97.11351a35.34792,35.34792,0,0,0-3.00973-67.59874Z"/><path class="h" d="M94.80883,318.08149a2.354,2.354,0,1,0,0-4.708H75.95841a2.354,2.354,0,1,0,0,4.708Z"/><path class="n" d="M118.59173,393.44133a33.26727,33.26727,0,0,1-21.83838,31.21094H74.019a33.23686,33.23686,0,0,1-21.83837-31.21094c0-.70334.02178-1.42863.08541-2.11191h7.19342a7.02,7.02,0,0,1,11.61344,0h30.911a4.82984,4.82984,0,0,1,5.42161,0h11.12088C118.57,392.0127,118.59173,392.738,118.59173,393.44133Z"/><rect class="i" x="76.66364" y="318.08149" width="17.44014" height="41.10916"/><path class="g" d="M83.22558,399.37865a5.93312,5.93312,0,1,1-5.93389-5.93217A5.93339,5.93339,0,0,1,83.22558,399.37865Z"/><path class="q" d="M76.65849,395.3675a2.48765,2.48765,0,0,0-3.38156,3.38139,2.488,2.488,0,0,0,3.38156-3.38139Z"/><path class="g" d="M99.41133,397.69053a3.32788,3.32788,0,1,1-3.32787-3.32633A3.328,3.328,0,0,1,99.41133,397.69053Z"/><path class="q" d="M95.73,395.43953a1.39814,1.39814,0,1,0-.23616,1.66137A1.21719,1.21719,0,0,0,95.73,395.43953Z"/><path class="g" d="M90.62686,409.91522a3.8622,3.8622,0,1,1-3.86228-3.86057A3.85916,3.85916,0,0,1,90.62686,409.91522Z"/><path class="q" d="M86.35262,407.30251a1.62134,1.62134,0,1,0-.273,1.92772A1.41076,1.41076,0,0,0,86.35262,407.30251Z"/><path class="g" d="M99.40464,407.93725a1.97462,1.97462,0,1,1-1.97453-1.9747A1.97412,1.97412,0,0,1,99.40464,407.93725Z"/><path class="q" d="M97.219,406.60072a.829.829,0,1,0-.13892.98478A.719.719,0,0,0,97.219,406.60072Z"/><path class="g" d="M83.21889,419.45516A1.93278,1.93278,0,1,1,81.2862,417.524,1.93168,1.93168,0,0,1,83.21889,419.45516Z"/><path class="q" d="M81.08023,418.1471a.812.812,0,1,0-.13566.96643A.70519.70519,0,0,0,81.08023,418.1471Z"/><path class="n" d="M86.773,308.75918a2.43443,2.43443,0,1,1-2.43519-2.43177A2.43492,2.43492,0,0,1,86.773,308.75918Z"/><path class="r" d="M84.07641,307.1129a1.02311,1.02311,0,0,0-1.38507,1.39348,1.02311,1.02311,0,0,0,1.38507-1.39348Z"/><path class="n" d="M93.86762,303.92737A2.9745,2.9745,0,1,1,90.893,300.9528,2.97455,2.97455,0,0,1,93.86762,303.92737Z"/><path class="r" d="M90.57318,301.9158a1.0734,1.0734,0,0,0-1.48214.2094.93753.93753,0,1,0,1.48214-.2094Z"/><path class="n" d="M89.67381,294.637a4.739,4.739,0,1,1-4.73987-4.73645A4.73753,4.73753,0,0,1,89.67381,294.637Z"/><path class="r" d="M84.42474,291.4312a1.7114,1.7114,0,0,0-2.35973.33495,1.49365,1.49365,0,1,0,2.35973-.33495Z"/><rect class="q" x="417.8223" y="377.78656" width="10.72059" height="10.71904"/><rect class="q" x="417.8223" y="416.06863" width="10.72059" height="10.72076"/><path class="o" d="M417.8223,416.06863H395.93522a13.795,13.795,0,0,1-13.77886-13.78246H371.43388a24.53165,24.53165,0,0,0,24.50134,24.50322H417.8223Z"/><path class="n" d="M417.8223,388.5056H395.93522a13.79575,13.79575,0,0,0-13.77886,13.78057H371.43388a24.529,24.529,0,0,1,24.50134-24.50133l21.88708.00172Z"/><path class="r" d="M375.74157,396.7073a21.01514,21.01514,0,0,1,20.19365-15.37506l21.88708.00172v-1.963l-21.88708-.00172a22.98807,22.98807,0,0,0-22.08945,16.81226,1.04285,1.04285,0,0,0-.03535.26463.98343.98343,0,0,0,1.93115.26121Z"/><rect class="e" x="416.54099" y="377.78656" width="1.28131" height="10.71904"/><rect class="e" x="416.54099" y="416.06863" width="1.28131" height="10.72076"/><polygon class="c" points="450.256 386.715 448.306 383.146 461.971 383.146 443.864 379.58 445.822 383.146 432.15 383.146 450.256 386.715"/><polygon class="c" points="450.256 424.997 448.306 421.428 461.971 421.428 443.864 417.861 445.822 421.428 432.15 421.428 450.256 424.997"/><rect class="q" x="307.19166" y="288.25065" width="24.66392" height="49.34121"/><path class="i" d="M331.85558,307.95362v29.63824c3.38979-5.09661,8.06929-8.247,13.24959-8.247,10.30537,0,18.66126,12.5111,18.66126,27.94978,0,11.28192-4.45844,20.99595-10.89158,25.41425h-4.91893v-7.40283H331.85558v3.70313h4.45v27.37713c21.75794-2.54582,38.72919-23.54846,38.72919-49.09168C375.0348,330.045,355.70536,307.95362,331.85558,307.95362Z"/><rect class="s" x="312.86606" y="379.62389" width="13.32008" height="9.87147"/><rect class="e" x="307.19166" y="382.70891" width="40.76426" height="3.6997"/><rect class="e" x="293.98374" y="370.37361" width="53.97218" height="4.93247"/><rect class="i" x="310.77079" y="337.59186" width="17.51389" height="15.35996"/><rect class="i" x="310.77079" y="272.89566" width="17.51389" height="15.35499"/><rect class="e" x="309.65704" y="268.94642" width="19.73471" height="3.94924"/><path class="q" d="M323.22666,362.81848a2.4667,2.4667,0,0,1-.72512,1.74352,2.4316,2.4316,0,0,1-1.742.72512h-2.46693a2.47017,2.47017,0,0,1-2.47224-2.46864v-9.86666h7.40626Z"/><rect class="e" x="311.62979" y="328.35146" width="4.69173" height="32.69596" transform="translate(-122.69775 508.14592) rotate(-68.19145)"/><polygon class="s" points="297.926 340.809 310.67 352.952 328.285 352.952 297.926 340.809"/><path class="q" d="M300.17231,356.57623a2.44915,2.44915,0,0,1-3.48531.08712l-1.78537-1.70167a2.43193,2.43193,0,0,1-.76885-1.72516,2.4708,2.4708,0,0,1,.67676-1.76684l6.80993-7.14163,5.35283,5.10158Z"/><path class="e" d="M375.0348,411.98528H339.657V394.22682a6.91893,6.91893,0,0,1,6.91044-6.912h.16584a6.88492,6.88492,0,0,1,4.80179,1.93938Z"/><path class="e" d="M282.45245,416.92118a3.45095,3.45095,0,0,0-3.45187,3.45016v6.41805h12.33187a1.48966,1.48966,0,0,1,1.489-1.48231h83.384a1.49266,1.49266,0,0,1,1.484,1.48231H390.018v-6.41805a3.45066,3.45066,0,0,0-3.44673-3.45016Z"/><path class="s" d="M383.85288,416.92118h-98.6838V414.4558a2.47871,2.47871,0,0,1,2.46864-2.47052h93.7515a2.48172,2.48172,0,0,1,2.46366,2.47052Z"/><path class="q" d="M348.54368,394.22682a1.97549,1.97549,0,1,1-1.97626-1.97624A1.97884,1.97884,0,0,1,348.54368,394.22682Z"/><path class="e" d="M342.93632,307.95362a11.07835,11.07835,0,1,1-11.08074-11.07577A11.082,11.082,0,0,1,342.93632,307.95362Z"/><path class="q" d="M336.52839,307.95362a4.67453,4.67453,0,1,1-4.67281-4.66784A4.66592,4.66592,0,0,1,336.52839,307.95362Z"/><path class="h" d="M128.37968,352.93518a2.49431,2.49431,0,0,1-2.48562,2.49042H103.15459a2.49448,2.49448,0,0,1-2.487-2.49042h0a2.49247,2.49247,0,0,1,2.487-2.48561h22.73947a2.49229,2.49229,0,0,1,2.48562,2.48561Z"/><path class="h" d="M88.2234,426.78939a5.32951,5.32951,0,0,1-4.6176-7.99418l30.91784-53.55165,30.91766,53.55165a5.32951,5.32951,0,0,1-4.61759,7.99418Z"/><path class="d" d="M143.28583,420.03794,132.4277,401.22782h-7.90534a2.80083,2.80083,0,0,0-4.579,0h-4.93248a5.5834,5.5834,0,0,0-9.50307,0H96.62112L85.763,420.03794a2.84235,2.84235,0,0,0,2.46041,4.26429h52.60031a2.84235,2.84235,0,0,0,2.46212-4.26429Z"/><rect class="i" x="102.97709" y="355.4256" width="23.09294" height="29.81729"/><path class="c" d="M110.266,334.40616a2.86062,2.86062,0,1,1-2.86053-2.85881A2.85769,2.85769,0,0,1,110.266,334.40616Z"/><path class="t" d="M106.898,332.58392a.95951.95951,0,1,1-1.164.1475A.84419.84419,0,0,1,106.898,332.58392Z"/><path class="c" d="M117.87656,322.14134a2.27107,2.27107,0,1,1-2.27107-2.27106A2.26837,2.26837,0,0,1,117.87656,322.14134Z"/><path class="t" d="M115.20194,320.69419a.76073.76073,0,1,1-.92458.11559A.67015.67015,0,0,1,115.20194,320.69419Z"/><path class="c" d="M126.1923,332.71289a3.95773,3.95773,0,1,1-3.95781-3.95592A3.95893,3.95893,0,0,1,126.1923,332.71289Z"/><path class="t" d="M121.60147,330.18234a1.38491,1.38491,0,1,1-1.68315.21593A1.22293,1.22293,0,0,1,121.60147,330.18234Z"/><path class="c" d="M114.71452,345.95769a1.79377,1.79377,0,1,1-1.79376-1.79206A1.7974,1.7974,0,0,1,114.71452,345.95769Z"/><path class="t" d="M112.63263,344.80878a.55585.55585,0,0,1-.09707.762.48568.48568,0,1,1,.09707-.762Z"/><path class="g" d="M123.26626,402.84562A1.0317,1.0317,0,1,1,122.233,401.819,1.034,1.034,0,0,1,123.26626,402.84562Z"/><path class="q" d="M122.0671,402.1891a.318.318,0,0,1-.05368.43717.32147.32147,0,0,1-.44042.05694.36186.36186,0,0,1,.4941-.49411Z"/><path class="g" d="M112.61428,404.17221a2.35485,2.35485,0,1,1-2.35493-2.35322A2.35451,2.35451,0,0,1,112.61428,404.17221Z"/><path class="q" d="M109.87912,402.66485a.82423.82423,0,0,1-1.12713,1.12885.72845.72845,0,0,1,.13069-1A.72051.72051,0,0,1,109.87912,402.66485Z"/><path class="g" d="M106.82256,415.08711a3.19728,3.19728,0,1,1-3.19564-3.20062A3.19759,3.19759,0,0,1,106.82256,415.08711Z"/><path class="q" d="M103.1112,413.03883a1.11875,1.11875,0,1,1-1.35831.17579A.98046.98046,0,0,1,103.1112,413.03883Z"/><path class="g" d="M124.40351,411.18469a4.90478,4.90478,0,1,1-4.90572-4.89886A4.90884,4.90884,0,0,1,124.40351,411.18469Z"/><path class="q" d="M118.709,408.05285a1.71306,1.71306,0,1,1-2.08018.26446A1.507,1.507,0,0,1,118.709,408.05285Z"/><path class="g" d="M129.27064,419.34626a1.42032,1.42032,0,1,1-1.42023-1.42366A1.422,1.422,0,0,1,129.27064,419.34626Z"/><path class="q" d="M127.62094,418.43677a.49653.49653,0,0,1-.68345.67676.4969.4969,0,0,1,.68345-.67676Z"/></g></svg>